<?xml version="1.0" encoding="UTF-8" standalone="no"?>
<!DOCTYPE svg PUBLIC "-//W3C//DTD SVG 1.1//EN"
 "http://www.w3.org/Graphics/SVG/1.1/DTD/svg11.dtd">
<!-- Generated by graphviz version 2.40.1 (20161225.0304)
 -->
<!-- Title: DAG Pages: 1 -->
<svg width="242pt" height="178pt"
 viewBox="0.00 0.00 242.00 178.00" xmlns="http://www.w3.org/2000/svg" xmlns:xlink="http://www.w3.org/1999/xlink">
<g id="graph0" class="graph" transform="scale(1 1) rotate(0) translate(4 174)">
<title>DAG</title>
<polygon fill="#000000" stroke="transparent" points="-4,4 -4,-174 238,-174 238,4 -4,4"/>
<text text-anchor="start" x="40.7486" y="-148.3" font-family="Special Elite" font-size="14.00" fill="#000000"> &#160;&#160;&#160;&#160;&#160;&#160;&#160;&#160;&#160;&#160;&#160;</text>
<text text-anchor="start" x="82.7486" y="-148.3" font-family="Special Elite" font-weight="bold" font-size="18.00" fill="#ffffff">Exhibit #2</text>
<text text-anchor="start" x="158.2514" y="-148.3" font-family="Special Elite" font-size="14.00" fill="#000000"> &#160;&#160;&#160;&#160;&#160;&#160;&#160;&#160;&#160;</text>
<text text-anchor="start" x="39.5114" y="-126.9" font-family="Special Elite" font-size="14.00" fill="#000000"> &#160;&#160;&#160;&#160;&#160;&#160;&#160;&#160;&#160;&#160;&#160;</text>
<text text-anchor="start" x="81.5114" y="-126.9" font-family="Special Elite" font-size="12.00" fill="#c0392b">Map of suspects</text>
<text text-anchor="start" x="159.4886" y="-126.9" font-family="Special Elite" font-size="14.00" fill="#000000"> &#160;&#160;&#160;&#160;&#160;&#160;&#160;&#160;&#160;</text>
<!-- Genre -->
<g id="node1" class="node">
<title>Genre</title>
<text text-anchor="middle" x="27" y="-94.8" font-family="Special Elite" font-size="14.00" fill="#ffffff">Genre</text>
</g>
<!-- Death -->
<g id="node2" class="node">
<title>Death</title>
<text text-anchor="middle" x="207" y="-70.8" font-family="Special Elite" font-size="14.00" fill="#ffffff">Death</text>
</g>
<!-- Genre&#45;&gt;Death -->
<g id="edge1" class="edge">
<title>Genre&#45;&gt;Death</title>
<path fill="none" stroke="#ffffff" stroke-width="1.6" d="M54.3092,-104.5395C78.2516,-108.4206 113.8446,-111.8133 144,-105 154.5609,-102.6139 165.4266,-98.2373 175.0969,-93.5509"/>
<polygon fill="#ffffff" stroke="#ffffff" stroke-width="1.6" points="176.0493,-95.0314 179.7416,-91.2327 174.4863,-91.8998 176.0493,-95.0314"/>
</g>
<!-- Life&#45;\nstyle -->
<g id="node4" class="node">
<title>Life&#45;\nstyle</title>
<text text-anchor="middle" x="117" y="-79.2" font-family="Special Elite" font-size="14.00" fill="#ffffff">Life&#45;</text>
<text text-anchor="middle" x="117" y="-62.4" font-family="Special Elite" font-size="14.00" fill="#ffffff">style</text>
</g>
<!-- Genre&#45;&gt;Life&#45;\nstyle -->
<g id="edge3" class="edge">
<title>Genre&#45;&gt;Life&#45;\nstyle</title>
<path fill="none" stroke="#ffffff" stroke-width="1.6" d="M54.003,-91.7992C63.7032,-89.2125 74.7391,-86.2696 84.8346,-83.5774"/>
<polygon fill="#ffffff" stroke="#ffffff" stroke-width="1.6" points="85.3248,-85.258 89.705,-82.2787 84.4229,-81.8761 85.3248,-85.258"/>
</g>
<!-- Sex -->
<g id="node3" class="node">
<title>Sex</title>
<text text-anchor="middle" x="117" y="-13.8" font-family="Special Elite" font-size="14.00" fill="#ffffff">Sex</text>
</g>
<!-- Sex&#45;&gt;Death -->
<g id="edge2" class="edge">
<title>Sex&#45;&gt;Death</title>
<path fill="none" stroke="#ffffff" stroke-width="1.6" d="M144.003,-35.1019C153.8795,-41.357 165.1409,-48.4892 175.3843,-54.9767"/>
<polygon fill="#ffffff" stroke="#ffffff" stroke-width="1.6" points="174.5446,-56.5163 179.705,-57.7132 176.4173,-53.5594 174.5446,-56.5163"/>
</g>
<!-- Life&#45;\nstyle&#45;&gt;Death -->
<g id="edge4" class="edge">
<title>Life&#45;\nstyle&#45;&gt;Death</title>
<path fill="none" stroke="#ffffff" stroke-width="1.6" d="M144.003,-75C153.615,-75 164.5386,-75 174.559,-75"/>
<polygon fill="#ffffff" stroke="#ffffff" stroke-width="1.6" points="174.7051,-76.7501 179.705,-75 174.705,-73.2501 174.7051,-76.7501"/>
</g>
</g>
</svg>

